<svg width="1600" height="1000" viewBox="0 0 1600 1000" fill="none" xmlns="http://www.w3.org/2000/svg">
  <defs>
    <linearGradient id="a" x1="162" y1="98" x2="1412" y2="906" gradientUnits="userSpaceOnUse">
      <stop stop-color="#F4F8F6"/>
      <stop offset="0.46" stop-color="#D8E0DF"/>
      <stop offset="1" stop-color="#9EADB0"/>
    </linearGradient>
    <linearGradient id="b" x1="1060" y1="102" x2="1458" y2="936" gradientUnits="userSpaceOnUse">
      <stop stop-color="#172126"/>
      <stop offset="1" stop-color="#091013"/>
    </linearGradient>
  </defs>
  <rect width="1600" height="1000" fill="url(#a)"/>
  <path d="M1032 118H1600V1000H894L1032 118Z" fill="url(#b)"/>
  <path d="M404 1000L654 552H958L1210 1000H404Z" fill="#F5F9F8"/>
  <path d="M486 1000L700 608H906L1124 1000H486Z" fill="#D5E0DF"/>
  <rect x="508" y="220" width="524" height="536" fill="#F9FCFB"/>
  <rect x="562" y="280" width="166" height="380" fill="#E6EFED"/>
  <rect x="782" y="280" width="214" height="380" fill="#F2F7F5"/>
  <rect x="750" y="280" width="18" height="380" fill="#8CC6C3" fill-opacity="0.46"/>
  <rect x="558" y="240" width="432" height="18" fill="#D6E1E0"/>
  <rect x="558" y="682" width="432" height="18" fill="#C4D0D1"/>
  <rect x="1120" y="154" width="196" height="6" fill="#8CC6C3"/>
  <path d="M1232 0V1000" stroke="white" stroke-opacity="0.08" stroke-width="2"/>
  <path d="M1312 0V1000" stroke="white" stroke-opacity="0.08" stroke-width="2"/>
</svg>
